<?xml version="1.0" standalone="no"?>
<!DOCTYPE svg PUBLIC "-//W3C//DTD SVG 20010904//EN"
 "http://www.w3.org/TR/2001/REC-SVG-20010904/DTD/svg10.dtd">
<svg version="1.0" xmlns="http://www.w3.org/2000/svg"
 width="1024.000000pt" height="1024.000000pt" viewBox="0 0 1024.000000 1024.000000"
 preserveAspectRatio="xMidYMid meet">

<g transform="translate(0.000000,1024.000000) scale(0.100000,-0.100000)"
fill="#000000" stroke="none">
<path d="M6670 8320 l0 -370 -369 0 c-232 0 -371 -4 -373 -10 -1 -5 -2 -55 0
-110 l3 -100 367 -2 367 -3 3 -364 c2 -277 5 -367 15 -373 17 -11 185 -10 192
2 3 5 7 173 8 372 l2 363 367 3 367 2 3 101 c2 56 1 105 -3 110 -3 5 -169 10
-370 11 l-364 3 -3 368 -2 367 -105 0 -105 0 0 -370z"/>
<path d="M3490 8627 c-238 -189 -543 -336 -832 -401 l-28 -6 0 -95 c0 -84 2
-95 18 -96 193 -9 340 -150 401 -384 12 -43 25 -126 31 -184 6 -68 10 -1108
10 -2896 0 -2756 0 -2790 20 -2822 22 -37 46 -45 119 -41 l53 3 22 77 c43 149
124 231 257 259 110 24 209 -15 451 -175 226 -149 366 -213 543 -251 97 -20
405 -20 514 0 562 107 1008 575 1234 1296 99 317 147 611 168 1037 20 405 -6
783 -81 1172 -23 119 -84 331 -132 460 -216 578 -579 968 -1036 1115 -170 54
-214 60 -432 59 -176 0 -218 -3 -295 -22 -293 -72 -519 -208 -737 -442 -46
-49 -88 -90 -92 -90 -8 0 0 1897 9 2025 3 44 12 131 21 192 16 112 16 113 -6
158 -25 51 -84 105 -115 104 -11 0 -49 -23 -85 -52z m1280 -2122 c163 -34 296
-110 430 -245 109 -109 181 -212 268 -380 192 -375 296 -786 364 -1440 14
-140 18 -809 5 -980 -66 -887 -346 -1431 -812 -1579 -185 -59 -351 -64 -540
-16 -353 89 -660 381 -779 740 -46 142 -46 131 -46 1668 l0 1449 30 74 c65
163 161 305 292 432 102 99 167 146 285 203 165 82 343 108 503 74z"/>
</g>
</svg>
